<svg width="329" height="92" viewBox="0 0 329 92" fill="none" xmlns="http://www.w3.org/2000/svg">
<path d="M149.6 84.2H150.4V90.3H156.1V90.8H149.6V84.2Z" fill="#4D5156"/>
<path d="M160.6 90.8V84.2H161.4V90.8H160.6Z" fill="#4D5156"/>
<path d="M171.6 90.8C168.4 90.8 165.9 89.4 165.9 87.5C165.9 85.5 168.5 84.1 171.6 84.1C173.4 84.1 174.9 84.5 175.9 85.2L175.3 85.6C174.4 84.9 173.1 84.6 171.6 84.6C168.9 84.6 166.8 85.8 166.8 87.5C166.8 89.1 168.8 90.4 171.6 90.4C174.1 90.4 175.8 89.2 175.9 87.9H171.8V87.5H176.8V87.7C176.8 89.3 174.8 90.8 171.6 90.8Z" fill="#4D5156"/>
<path d="M188.5 87.7H182.1V90.8H181.3V84.2H182.1V87.2H188.5V84.2H189.4V90.8H188.5V87.7Z" fill="#4D5156"/>
<path d="M197.3 90.8V84.6H193.7V84.2H201.7V84.6H198.1V90.8H197.3Z" fill="#4D5156"/>
<path d="M204.2 91.4H203.8L204.1 90.8H203.7V90.2H204.5V90.7L204.2 91.4Z" fill="#4D5156"/>
<path d="M215.2 88.8H216C216.2 89.8 217.5 90.4 219.6 90.4C221.6 90.4 222.7 89.8 222.7 89C222.7 88 221.1 87.8 219.4 87.6C217.5 87.4 215.6 87.2 215.6 85.9C215.6 84.8 217.1 84.1 219.3 84.1C221.6 84.1 223.1 84.9 223.2 86H222.4C222.3 85.3 221.3 84.6 219.2 84.6C217.5 84.6 216.5 85.1 216.5 85.9C216.5 86.8 218 87 219.7 87.2C221.5 87.4 223.5 87.6 223.5 89C223.5 90 222.3 90.9 219.6 90.9C217 90.9 215.4 90.2 215.2 88.8Z" fill="#4D5156"/>
<path fill-rule="evenodd" clip-rule="evenodd" d="M229 88.4V90.8H228.1V84.2H231.9C234.1 84.2 235.7 85.1 235.7 86.3C235.7 87.5 234.2 88.4 231.7 88.4H229ZM229 84.6V88H231.9C233.7 88 234.9 87.2 234.9 86.3C234.9 85.4 233.8 84.6 231.7 84.6H229Z" fill="#4D5156"/>
<path d="M240.4 84.2H247V84.6H241.3V87.2H246.6V87.7H241.3V90.3H247.3V90.8H240.4V84.2Z" fill="#4D5156"/>
<path d="M251.6 84.2H258.2V84.6H252.5V87.2H257.8V87.7H252.5V90.3H258.5V90.8H251.6V84.2Z" fill="#4D5156"/>
<path fill-rule="evenodd" clip-rule="evenodd" d="M262.9 84.2H266.2C269.3 84.2 271.8 85.6 271.8 87.5C271.8 89.4 269.3 90.8 266.2 90.8H262.9V84.2ZM263.7 84.6V90.3H266.2C268.8 90.3 270.9 89.1 270.9 87.4C270.9 85.8 268.8 84.6 266.2 84.6H263.7Z" fill="#4D5156"/>
<path d="M275.7 91.4H275.3L275.5 90.8H275.2V90.2H276V90.7L275.7 91.4Z" fill="#4D5156"/>
<path fill-rule="evenodd" clip-rule="evenodd" d="M287.1 84.2H290.5C293.6 84.2 296 85.6 296 87.5C296 89.4 293.6 90.8 290.5 90.8H287.1V84.2ZM288 84.6V90.3H290.5C293.1 90.3 295.2 89.1 295.2 87.4C295.2 85.8 293.1 84.6 290.5 84.6H288Z" fill="#4D5156"/>
<path fill-rule="evenodd" clip-rule="evenodd" d="M306.5 89H301.1L299.9 90.8H299.1L303.4 84.2H304.2L308.6 90.8H307.7L306.5 89ZM303.7 84.8L301.3 88.5H306.2L303.7 84.8Z" fill="#4D5156"/>
<path d="M313.4 90.8V84.6H309.8V84.2H317.8V84.6H314.3V90.8H313.4Z" fill="#4D5156"/>
<path fill-rule="evenodd" clip-rule="evenodd" d="M326.6 89H321.1L319.9 90.8H319.1L323.4 84.2H324.3L328.6 90.8H327.7L326.6 89ZM323.9 84.8L321.4 88.5H326.3L323.9 84.8Z" fill="#4D5156"/>
<path d="M282 67.4C282 73 277.4 77.5 271.8 77.5C266.2 77.5 261.7 73 261.7 67.4C261.7 61.8 266.2 57.2 271.8 57.2C277.4 57.2 282 61.8 282 67.4Z" fill="#F05B2B"/>
<path d="M305.2 67.4C305.2 73 300.7 77.5 295.1 77.5C289.5 77.5 284.9 73 284.9 67.4C284.9 61.8 289.5 57.2 295.1 57.2C300.7 57.2 305.2 61.8 305.2 67.4Z" fill="#F69371"/>
<path d="M328.5 67.4C328.5 73 323.9 77.5 318.3 77.5C312.7 77.5 308.2 73 308.2 67.4C308.2 61.8 312.7 57.2 318.3 57.2C323.9 57.2 328.5 61.8 328.5 67.4Z" fill="#F8B096"/>
<path d="M133.7 13.8C133.7 19.4 129.2 24 123.6 24C118 24 113.4 19.4 113.4 13.8C113.4 8.20002 118 3.70001 123.6 3.70001C129.2 3.70001 133.7 8.20002 133.7 13.8Z" fill="#F05B2B"/>
<path d="M259.6 13.8C259.6 19.4 255 24 249.4 24C243.8 24 239.3 19.4 239.3 13.8C239.3 8.20002 243.8 3.70001 249.4 3.70001C255 3.70001 259.6 8.20002 259.6 13.8Z" fill="#F05B2B"/>
<path fill-rule="evenodd" clip-rule="evenodd" d="M110.9 51.9C110.9 67.1 98.5 78.8 83.4 78.8C68.3 78.8 55.8 67.1 55.8 51.9C55.8 36.8 68.3 25 83.4 25C98.5 25 110.9 36.8 110.9 51.9ZM72.8 52.2C72.8 58.1 77.6 62.9 83.4 62.9C89.2 62.9 94 58.1 94 52.2C94 46.1 89.2 41.4 83.4 41.4C77.6 41.4 72.8 46.1 72.8 52.2Z" fill="#57585A"/>
<path d="M114.9 77.5V26.2H132.4V77.5H114.9Z" fill="#57585A"/>
<path d="M151.9 61.7C152 64.6 154 66.9 159.1 66.9C162.6 66.9 164.2 65.5 164.2 63.8C164.2 61.3 160.4 60.7 155.8 59.8C147.5 58.3 136 56.2 136 42.3C136 32.6 144.3 25.3 157.8 25.3C171.2 25.3 179.6 31.6 180.4 42.8H163.7C163.6 39.8 162.4 37.8 157.9 37.8C154.6 37.8 152.9 39 152.9 41C152.9 43.6 156.6 44.5 161.2 45.4C169.8 47.1 181.8 48.8 181.8 61.3C181.8 73.1 172.1 78.8 158.8 78.8C144.1 78.8 135.4 71.4 135.4 61.7H151.9Z" fill="#57585A"/>
<path d="M240.8 77.5V26.2H258.2V77.5H240.8Z" fill="#57585A"/>
<path d="M32.3 25.2C26.5 25.2 21.6 27.2 18.4 30.9V9.60002C18.4 4.80002 14.5 0.900009 9.69999 0.900009C4.89999 0.900009 0.899994 4.80002 0.899994 9.60002V77.5H18.4V50.7C18.4 44.7 22 41.2 26.7 41.2C31.9 41.2 34.6 45.1 34.6 50.1V77.5H52V45.9C52 33.6 44.3 25.2 32.3 25.2Z" fill="#57585A"/>
<path d="M216.5 25.2C210.7 25.2 205.8 27.2 202.6 30.9V9.60002C202.6 4.80002 198.7 0.900009 193.9 0.900009C189.1 0.900009 185.1 4.80002 185.1 9.60002V77.5H202.6V50.7C202.6 44.7 206.2 41.2 210.9 41.2C216.1 41.2 218.8 45.1 218.8 50.1V77.5H236.2V45.9C236.2 33.6 228.5 25.2 216.5 25.2Z" fill="#57585A"/>
</svg>
